<svg xmlns="http://www.w3.org/2000/svg" id="Layer_1" viewBox="0 0 841.9 546"><style id="style2">.st0{fill:#ffffff;}</style><g id="g16" fill="#fff"><g id="g6"><path id="path4" d="M401.8 395.2c-1.8 0-3.6-.5-5-1.4L84.3 206.3c-3.2-2-5-5.6-4.8-9.3.3-3.8 2.7-7 6.2-8.5L412 54.7c2.5-1 5.3-1 7.8 0L718 184.3c3.3 1.5 5.6 4.6 6 8.2.3 3.6-1.3 7.2-4.4 9.2L661 241.3c-4.6 3-10.8 2-14-2.7-3-4.6-1.8-10.8 2.8-14l43.5-29.4L415.7 74.8l-304 124.7 290 174L536 287c4.7-3 11-1.6 14 3s1.5 10.8-3 13.8l-140 89.7c-1.7 1-3.5 1.7-5.4 1.7z" class="st0"/></g><g id="g10"><path id="path8" d="M643 443.7c-1.2 0-2.3-.2-3.3-.5l-33.2-11.4-11 9.5c-3 2.6-7.3 3-11 1.4-3.5-1.7-5.7-5.3-5.6-9.3l3-128c0-5.3 4.2-9.6 10-9.6s10 4.7 9.6 10.3L599 412c2.6-1 5.5-1.3 8-.4l23 8L607 274l-186-71c-5-2-7.8-8-5.8-13s7.7-8 13-6L620 257c3.4 1.3 5.8 4.2 6.3 7.8L652.8 432c.5 3.6-.8 7-3.4 9.3-2 1.5-4.2 2.4-6.5 2.4z" class="st0"/></g><g id="g14"><path id="path12" d="M401.8 515.4c-2 0-4-.6-6-2l-166-120c-2.7-2-4.2-5-4.2-8.2v-99.7c0-5.5 4.5-10 10-10s10 4.5 10 10V380L402 493.3 547 400c4.7-3 11-1.8 14 3 3 4.5 1.6 10.7-3 13.7l-150.8 97c-1.7 1.2-3.5 1.7-5.4 1.7z" class="st0"/></g></g></svg>